<svg width="36" height="36" viewBox="0 0 36 36" fill="none" xmlns="http://www.w3.org/2000/svg">
<path d="M26.9607 11.6667C26.9607 9.3461 26.0388 7.12051 24.3979 5.47956C22.7569 3.83862 20.5313 2.91675 18.2107 2.91675C15.89 2.91675 13.6645 3.83862 12.0235 5.47956C10.3826 7.12051 9.46069 9.3461 9.46069 11.6667C9.46069 21.8751 5.08569 24.7917 5.08569 24.7917H31.3357C31.3357 24.7917 26.9607 21.8751 26.9607 11.6667Z" stroke="#E6E6E6" stroke-width="2.5" stroke-linecap="round" stroke-linejoin="round"/>
<path d="M20.7336 30.625C20.4772 31.067 20.1092 31.4339 19.6664 31.6889C19.2236 31.9439 18.7216 32.0782 18.2107 32.0782C17.6997 32.0782 17.1977 31.9439 16.7549 31.6889C16.3121 31.4339 15.9441 31.067 15.6877 30.625" stroke="#E6E6E6" stroke-width="2.5" stroke-linecap="round" stroke-linejoin="round"/>
</svg>
