<svg width="44" height="43" viewBox="0 0 44 43" fill="none" xmlns="http://www.w3.org/2000/svg">
<path d="M21.7552 0C9.90861 0 0.304932 9.60357 0.304932 21.45C0.304932 33.2971 9.90861 42.9 21.7552 42.9C33.6024 42.9 43.2054 33.2971 43.2054 21.45C43.2054 9.60357 33.6024 0 21.7552 0ZM21.7552 40.261C11.4061 40.261 2.98621 31.799 2.98621 21.4499C2.98621 11.101 11.4061 2.68117 21.7552 2.68117C32.1042 2.68117 40.5241 11.101 40.5241 21.4499C40.5241 31.7988 32.1042 40.261 21.7552 40.261ZM29.3385 13.8668C28.815 13.3432 27.9664 13.3432 27.4428 13.8668L21.7552 19.5544L16.0675 13.8668C15.544 13.3432 14.6954 13.3432 14.1712 13.8668C13.6477 14.3903 13.6477 15.2389 14.1712 15.7624L19.8588 21.45L14.1712 27.1376C13.6477 27.6604 13.6477 28.5104 14.1712 29.0333C14.6947 29.5568 15.5433 29.5568 16.0675 29.0333L21.7552 23.3457L27.4428 29.0333C27.9664 29.5568 28.815 29.5568 29.3385 29.0333C29.862 28.5104 29.862 27.6604 29.3385 27.1376L23.6508 21.45L29.3385 15.7624C29.8627 15.2382 29.8627 14.3896 29.3385 13.8668Z" fill="#ED1F03"/>
</svg>
