<svg width="18" height="23" viewBox="0 0 18 23" fill="none" xmlns="http://www.w3.org/2000/svg">
<path fill-rule="evenodd" clip-rule="evenodd" d="M5.88208 2.75C5.88208 3.41304 5.61869 4.04893 5.14985 4.51777C4.68101 4.98661 4.04512 5.25 3.38208 5.25C2.71904 5.25 2.08315 4.98661 1.61431 4.51777C1.14547 4.04893 0.88208 3.41304 0.88208 2.75C0.88208 2.08696 1.14547 1.45107 1.61431 0.982233C2.08315 0.513392 2.71904 0.25 3.38208 0.25C4.04512 0.25 4.68101 0.513392 5.14985 0.982233C5.61869 1.45107 5.88208 2.08696 5.88208 2.75ZM3.38208 14C4.04512 14 4.68101 13.7366 5.14985 13.2678C5.61869 12.7989 5.88208 12.163 5.88208 11.5C5.88208 10.837 5.61869 10.2011 5.14985 9.73223C4.68101 9.26339 4.04512 9 3.38208 9C2.71904 9 2.08315 9.26339 1.61431 9.73223C1.14547 10.2011 0.88208 10.837 0.88208 11.5C0.88208 12.163 1.14547 12.7989 1.61431 13.2678C2.08315 13.7366 2.71904 14 3.38208 14ZM3.38208 22.75C4.04512 22.75 4.68101 22.4866 5.14985 22.0178C5.61869 21.5489 5.88208 20.913 5.88208 20.25C5.88208 19.587 5.61869 18.9511 5.14985 18.4822C4.68101 18.0134 4.04512 17.75 3.38208 17.75C2.71904 17.75 2.08315 18.0134 1.61431 18.4822C1.14547 18.9511 0.88208 19.587 0.88208 20.25C0.88208 20.913 1.14547 21.5489 1.61431 22.0178C2.08315 22.4866 2.71904 22.75 3.38208 22.75ZM17.1321 2.75C17.1321 3.41304 16.8687 4.04893 16.3998 4.51777C15.931 4.98661 15.2951 5.25 14.6321 5.25C13.969 5.25 13.3332 4.98661 12.8643 4.51777C12.3955 4.04893 12.1321 3.41304 12.1321 2.75C12.1321 2.08696 12.3955 1.45107 12.8643 0.982233C13.3332 0.513392 13.969 0.25 14.6321 0.25C15.2951 0.25 15.931 0.513392 16.3998 0.982233C16.8687 1.45107 17.1321 2.08696 17.1321 2.75ZM14.6321 14C15.2951 14 15.931 13.7366 16.3998 13.2678C16.8687 12.7989 17.1321 12.163 17.1321 11.5C17.1321 10.837 16.8687 10.2011 16.3998 9.73223C15.931 9.26339 15.2951 9 14.6321 9C13.969 9 13.3332 9.26339 12.8643 9.73223C12.3955 10.2011 12.1321 10.837 12.1321 11.5C12.1321 12.163 12.3955 12.7989 12.8643 13.2678C13.3332 13.7366 13.969 14 14.6321 14ZM14.6321 22.75C15.2951 22.75 15.931 22.4866 16.3998 22.0178C16.8687 21.5489 17.1321 20.913 17.1321 20.25C17.1321 19.587 16.8687 18.9511 16.3998 18.4822C15.931 18.0134 15.2951 17.75 14.6321 17.75C13.969 17.75 13.3332 18.0134 12.8643 18.4822C12.3955 18.9511 12.1321 19.587 12.1321 20.25C12.1321 20.913 12.3955 21.5489 12.8643 22.0178C13.3332 22.4866 13.969 22.75 14.6321 22.75Z" fill="#404040"/>
</svg>
