<svg width="23" height="22" viewBox="0 0 23 22" fill="none" xmlns="http://www.w3.org/2000/svg">
<path d="M21.3235 1.18283C20.6071 0.466506 19.6355 0.0640869 18.6224 0.0640869C17.6093 0.0640869 16.6376 0.466506 15.9212 1.18283L2.41104 14.6953C2.01705 15.0891 1.74522 15.5883 1.62823 16.1328L0.586821 20.9922C0.559357 21.1198 0.564311 21.2523 0.601229 21.3775C0.638146 21.5027 0.705852 21.6167 0.798159 21.709C0.890466 21.8013 1.00443 21.869 1.12964 21.9059C1.25486 21.9428 1.38733 21.9478 1.51495 21.9203L6.37432 20.8789C6.9189 20.7619 7.41808 20.4901 7.81182 20.0961L21.3235 6.5844C22.0396 5.868 22.4419 4.89654 22.4419 3.88361C22.4419 2.87069 22.0396 1.89923 21.3235 1.18283ZM17.0267 2.28752C17.4538 1.88354 18.0218 1.66213 18.6097 1.67037C19.1975 1.67861 19.759 1.91585 20.1747 2.33164C20.5904 2.74743 20.8275 3.30898 20.8356 3.89687C20.8437 4.48476 20.6222 5.05263 20.2181 5.47971L19.5149 6.18283L16.3228 2.99143L17.0267 2.28752ZM15.2173 4.09611L18.4095 7.2883L6.70791 18.9922C6.52684 19.1732 6.29732 19.298 6.04698 19.3516L2.36651 20.1406L3.15557 16.461C3.20916 16.2106 3.33396 15.9811 3.51495 15.8L15.2173 4.09611Z" fill="#848484"/>
</svg>
