<svg width="33" height="26" viewBox="0 0 33 26" fill="none" xmlns="http://www.w3.org/2000/svg">
<path fill-rule="evenodd" clip-rule="evenodd" d="M16.5407 16.121L16.7101 16.1211L17.089 16.1223C19.9848 16.1414 26.6027 16.4339 26.6027 20.9195C26.6027 25.3756 20.2155 25.6662 17.1341 25.6852L15.9924 25.6852C13.0964 25.6661 6.47722 25.374 6.47722 20.894C6.47722 16.4323 13.0964 16.1413 15.9924 16.1223L16.3713 16.1211C16.4301 16.121 16.4866 16.121 16.5407 16.121ZM16.5407 18.371C12.9767 18.371 8.72721 18.809 8.72721 20.894C8.72721 22.9318 12.7231 23.4083 16.215 23.4353L16.5407 23.4365C20.1047 23.4365 24.3527 23 24.3527 20.9195C24.3527 18.8135 20.1047 18.371 16.5407 18.371ZM28.4711 15.5123C32.1056 16.0568 32.8691 17.7638 32.8691 19.1003C32.8691 19.9163 32.5481 21.4058 30.4031 22.2233C30.2711 22.2728 30.1361 22.2968 30.0026 22.2968C29.5496 22.2968 29.1221 22.0208 28.9511 21.5723C28.7291 20.9918 29.0216 20.3408 29.6021 20.1203C30.6191 19.7333 30.6191 19.3058 30.6191 19.1003C30.6191 18.4433 29.7836 17.9843 28.1366 17.7383C27.5231 17.6453 27.0986 17.0738 27.1901 16.4573C27.2816 15.8423 27.8516 15.4328 28.4711 15.5123ZM5.88982 16.4573C5.98132 17.0738 5.55682 17.6453 4.94332 17.7383C3.29632 17.9843 2.46082 18.4433 2.46082 19.1003C2.46082 19.3058 2.46082 19.7318 3.47932 20.1203C4.05982 20.3408 4.35232 20.9918 4.13032 21.5723C3.95932 22.0208 3.53182 22.2968 3.07882 22.2968C2.94532 22.2968 2.81032 22.2728 2.67832 22.2233C0.531815 21.4043 0.210815 19.9148 0.210815 19.1003C0.210815 17.7653 0.974316 16.0568 4.61032 15.5123C5.22982 15.4343 5.79682 15.8423 5.88982 16.4573ZM16.5407 0.5C20.3207 0.5 23.3942 3.575 23.3942 7.3535C23.3942 11.132 20.3207 14.207 16.5407 14.207H16.5002C14.6702 14.201 12.9557 13.484 11.6717 12.188C10.3847 10.8935 9.68122 9.1745 9.68866 7.349C9.68866 3.575 12.7622 0.5 16.5407 0.5ZM16.5407 2.75C14.0027 2.75 11.9387 4.8155 11.9387 7.3535C11.9342 8.5835 12.4052 9.734 13.2677 10.6025C14.1302 11.471 15.2792 11.9525 16.5032 11.957L16.5407 13.082V11.957C19.0787 11.957 21.1442 9.893 21.1442 7.3535C21.1442 4.8155 19.0787 2.75 16.5407 2.75ZM25.8242 1.96925C28.4612 2.40275 30.3767 4.65875 30.3767 7.33325C30.3707 10.0258 28.3592 12.3358 25.6967 12.7093C25.6442 12.7168 25.5917 12.7198 25.5407 12.7198C24.9887 12.7198 24.5072 12.3133 24.4277 11.7508C24.3422 11.1343 24.7697 10.5658 25.3862 10.4803C26.9462 10.2613 28.1237 8.90825 28.1267 7.33025C28.1267 5.76575 27.0047 4.44275 25.4582 4.18925C24.8462 4.08875 24.4307 3.50975 24.5312 2.89625C24.6332 2.28275 25.2077 1.87175 25.8242 1.96925ZM8.55021 2.89625C8.65071 3.50975 8.23522 4.08875 7.62322 4.18925C6.07671 4.44275 4.95472 5.76575 4.95472 7.33325C4.95772 8.90825 6.13521 10.2628 7.69372 10.4803C8.31021 10.5658 8.73771 11.1343 8.65222 11.7508C8.57271 12.3133 8.09122 12.7198 7.53922 12.7198C7.48822 12.7198 7.43572 12.7168 7.38322 12.7093C4.72072 12.3358 2.71072 10.0258 2.70472 7.33625C2.70472 4.65875 4.62022 2.40275 7.25722 1.96925C7.88872 1.87025 8.44822 2.28575 8.55021 2.89625Z" fill="#E6E6E6"/>
</svg>
