<svg width="25" height="26" viewBox="0 0 25 26" fill="none" xmlns="http://www.w3.org/2000/svg">
<g clip-path="url(#clip0_5208_222)">
<path d="M20.1633 8.33936L18.9133 9.58936C21.5696 10.9956 22.8196 13.1831 23.2883 14.2769C22.1946 15.6831 18.9133 19.1206 12.3508 19.1206C11.2571 19.1206 10.4758 18.9644 9.53833 18.8081L8.28833 20.0581C9.53833 20.5269 10.9446 20.6831 12.3508 20.6831C21.2571 20.6831 25.0071 14.4331 25.0071 14.4331C25.0071 14.4331 24.0696 10.6831 20.1633 8.33936Z" fill="#848484"/>
<path d="M18.7571 11.3081C18.7571 10.8394 18.7571 10.3706 18.6008 10.0581L11.1008 17.4019C11.5696 17.4019 12.0383 17.5581 12.5071 17.5581C15.9446 17.5581 18.7571 14.7456 18.7571 11.3081ZM23.9133 0.214355L17.0383 7.08936C15.7883 6.77686 14.2258 6.46436 12.5071 6.46436C2.03833 6.46436 0.00708008 14.4331 0.00708008 14.4331C0.00708008 14.4331 1.56958 17.2456 5.16333 19.1206L0.00708008 24.1206V25.2144H1.10083L25.0071 1.30811V0.214355H23.9133ZM6.25708 17.8706C3.75708 16.7769 2.35083 15.0581 1.72583 14.2769C2.19458 13.1831 3.44458 10.8394 6.56958 9.27686C6.41333 9.90186 6.25708 10.5269 6.25708 11.3081C6.25708 13.0269 7.03833 14.7456 8.28833 15.8394L6.25708 17.8706ZM9.69458 12.5581L8.13208 12.8706C8.13208 12.8706 7.66333 12.0894 7.66333 10.9956C7.66333 9.74561 8.28833 8.65186 8.28833 8.65186C9.06958 8.18311 10.3196 8.18311 10.3196 8.18311C10.3196 8.18311 9.53833 9.58936 9.53833 10.8394C9.38208 11.9331 9.69458 12.5581 9.69458 12.5581Z" fill="#848484"/>
</g>
<defs>
<clipPath id="clip0_5208_222">
<rect width="25" height="25" fill="white" transform="translate(0.00708008 0.214355)"/>
</clipPath>
</defs>
</svg>
