<svg width="30" height="32" viewBox="0 0 30 32" fill="none" xmlns="http://www.w3.org/2000/svg">
<path d="M12.0001 28.3165C11.6683 29.387 10.6653 30.1578 9.49068 30.1578H6.96947C3.9125 30.1578 1.42188 27.6957 1.42188 24.6433V13.1932V13.1814L1.42215 13.1697C1.45231 11.8875 2.06106 10.6891 3.07634 9.904L11.6331 3.05468C13.4783 1.47894 16.192 1.4338 18.0894 2.94894C18.0899 2.94934 18.0904 2.94975 18.0909 2.95015L26.865 9.9067L26.8739 9.91372L26.8826 9.92094C27.8568 10.7299 28.4219 11.9279 28.4219 13.1932V24.655C28.4219 26.1193 27.8349 27.5219 26.7928 28.5537C25.7514 29.5849 24.341 30.1612 22.8733 30.1578M12.0001 28.3165L22.8743 29.1578M12.0001 28.3165L12.1518 28.2663V27.5438V23.5205C12.1518 23.0526 12.5359 22.6609 13.0251 22.6609H16.8069C17.0408 22.6609 17.2637 22.7532 17.4269 22.9152C17.5899 23.077 17.6801 23.2949 17.6801 23.5205V27.5405L12.0001 28.3165ZM22.8733 30.1578C22.8728 30.1578 22.8722 30.1578 22.8717 30.1578L22.8743 29.1578M22.8733 30.1578H22.8743V29.1578M22.8733 30.1578H20.2942C19.5999 30.1578 18.9329 29.8828 18.4416 29.3915L19.1487 28.6844C19.4517 28.9874 19.864 29.1578 20.2942 29.1578H22.8743" stroke="#E6E6E6" stroke-width="2"/>
</svg>
