<svg width="30" height="27" viewBox="0 0 30 27" fill="none" xmlns="http://www.w3.org/2000/svg">
<path d="M29.2107 6.51295V11.5328C29.0205 12.3361 28.5989 13.0739 27.9763 13.6723C27.1005 14.5129 25.9333 14.9762 24.6913 14.9762H16.8828V13.4479C16.8828 12.802 16.3543 12.2737 15.7084 12.2737H13.7128C13.0673 12.2737 12.5389 12.8022 12.5389 13.4479V14.9762H4.72991C3.48798 14.9762 2.32102 14.5129 1.44493 13.6723C0.821723 13.0748 0.400933 12.3364 0.210693 11.5334V6.51295C0.210693 5.43081 1.09664 4.54486 2.17892 4.54486H27.2428C28.3249 4.54486 29.2107 5.43081 29.2107 6.51295ZM15.7086 17.6785C15.7587 17.6781 15.8067 17.6579 15.8422 17.6225C15.8777 17.587 15.8978 17.539 15.8982 17.4889V13.4479C15.8982 13.3446 15.812 13.2576 15.7086 13.2576H13.7128C13.6099 13.2576 13.5226 13.3446 13.5226 13.4479V17.4889C13.5226 17.5921 13.6099 17.6785 13.7128 17.6785H15.7086ZM28.6582 14.3821C27.5974 15.3996 26.1895 15.9604 24.6913 15.9604H16.8828V17.489C16.8828 18.134 16.3543 18.6628 15.7084 18.6628H13.7128C13.0673 18.6628 12.5389 18.1341 12.5389 17.489V15.9604H4.72991C3.23206 15.9604 1.82382 15.3996 0.763143 14.3821C0.564062 14.1911 0.379406 13.9857 0.210693 13.7674L0.210693 24.4233C0.210693 25.5063 1.09664 26.3916 2.17892 26.3916H27.2428C28.3249 26.3916 29.2107 25.5063 29.2107 24.4233V13.7674C29.042 13.9857 28.8574 14.1912 28.6582 14.3821ZM19.2486 1.18507C19.066 1.002 18.8491 0.856808 18.6102 0.757844C18.3714 0.658881 18.1153 0.608094 17.8568 0.6084H11.5652C11.3066 0.60804 11.0505 0.658801 10.8116 0.757766C10.5727 0.856732 10.3557 1.00195 10.1731 1.18507C9.99013 1.36766 9.84506 1.58458 9.74618 1.82338C9.64729 2.06219 9.59654 2.31816 9.59683 2.57663V3.56075H11.2694V2.57663C11.2694 2.52081 11.2846 2.43917 11.3564 2.36783C11.3836 2.34009 11.4161 2.31811 11.452 2.30319C11.4879 2.28827 11.5264 2.28071 11.5652 2.28098H17.8569C17.9123 2.28098 17.9941 2.29649 18.0653 2.36783C18.1369 2.43917 18.1521 2.52081 18.1521 2.57663V3.56075H19.8247V2.57663C19.825 2.31818 19.7742 2.06222 19.6754 1.82342C19.5765 1.58463 19.4315 1.3677 19.2486 1.18507Z" fill="white"/>
</svg>
