<svg width="15" height="16" viewBox="0 0 15 16" fill="none" xmlns="http://www.w3.org/2000/svg">
<path d="M14.0625 6.98275L2.94375 6.98275L6.34687 2.54529C6.506 2.33744 6.58256 2.06948 6.55971 1.80036C6.53685 1.53124 6.41645 1.28299 6.225 1.11024C6.03355 0.937484 5.78672 0.854371 5.53882 0.879184C5.29092 0.903997 5.06225 1.0347 4.90312 1.24255L0.215625 7.34914C0.184089 7.39771 0.155887 7.44874 0.13125 7.50181C0.13125 7.5527 0.131251 7.58323 0.0656257 7.63412C0.0231321 7.75081 0.000882838 7.87503 5.46441e-07 8.00051C0.000882857 8.12599 0.0231321 8.25021 0.0656257 8.36691C0.0656257 8.4178 0.0656254 8.44833 0.13125 8.49922C0.155887 8.55228 0.184089 8.60331 0.215626 8.65188L4.90312 14.7585C4.99127 14.8734 5.10165 14.9658 5.22642 15.0291C5.35118 15.0924 5.48727 15.1251 5.625 15.1249C5.84405 15.1253 6.05633 15.0425 6.225 14.8908C6.31993 14.8053 6.3984 14.7004 6.45592 14.582C6.51344 14.4636 6.54887 14.334 6.56019 14.2007C6.57151 14.0674 6.5585 13.933 6.52189 13.8052C6.48529 13.6773 6.42582 13.5586 6.34688 13.4557L2.94375 9.01828L14.0625 9.01828C14.3111 9.01828 14.5496 8.91105 14.7254 8.72018C14.9012 8.52931 15 8.27044 15 8.00051C15 7.73058 14.9012 7.47171 14.7254 7.28084C14.5496 7.08997 14.3111 6.98275 14.0625 6.98275Z" fill="#161616"/>
</svg>
