<svg width="43" height="43" viewBox="0 0 43 43" fill="none" xmlns="http://www.w3.org/2000/svg">
<path d="M21.4502 0C9.60367 0 0 9.60357 0 21.45C0 33.2971 9.60367 42.9 21.4502 42.9C33.2975 42.9 42.9005 33.2971 42.9005 21.45C42.9005 9.60357 33.2975 0 21.4502 0ZM21.4502 40.261C11.1012 40.261 2.68128 31.799 2.68128 21.4499C2.68128 11.101 11.1012 2.68117 21.4502 2.68117C31.7993 2.68117 40.2192 11.101 40.2192 21.4499C40.2192 31.7988 31.7993 40.261 21.4502 40.261ZM30.0109 13.6013L17.4256 26.2655L11.758 20.598C11.2345 20.0745 10.3859 20.0745 9.86171 20.598C9.33819 21.1215 9.33819 21.9702 9.86171 22.4937L16.4972 29.1298C17.0207 29.6526 17.8693 29.6526 18.3935 29.1298C18.4539 29.0694 18.5055 29.0037 18.5524 28.9354L31.9079 15.4976C32.4308 14.9741 32.4308 14.1255 31.9079 13.6013C31.3837 13.0778 30.5351 13.0778 30.0109 13.6013Z" fill="#3D8E41"/>
</svg>
