<svg width="22" height="22" viewBox="0 0 22 22" fill="none" xmlns="http://www.w3.org/2000/svg">
<path d="M21.5221 18.7869C21.8912 19.197 21.8912 19.8123 21.4811 20.1814L20.3326 21.3298C19.9635 21.74 19.3483 21.74 18.9381 21.3298L14.8776 17.2693C14.6725 17.0642 14.5905 16.8181 14.5905 16.572V15.8748C13.1139 17.0232 11.3092 17.6794 9.34045 17.6794C4.62366 17.6794 0.809204 13.865 0.809204 9.14819C0.809204 4.47241 4.62366 0.616943 9.34045 0.616943C14.0162 0.616943 17.8717 4.47241 17.8717 9.14819C17.8717 11.158 17.1744 12.9626 16.067 14.3982H16.7233C16.9694 14.3982 17.2155 14.5212 17.4205 14.6853L21.5221 18.7869ZM9.34045 14.3982C12.2115 14.3982 14.5905 12.0603 14.5905 9.14819C14.5905 6.2771 12.2115 3.89819 9.34045 3.89819C6.42834 3.89819 4.09045 6.2771 4.09045 9.14819C4.09045 12.0603 6.42834 14.3982 9.34045 14.3982Z" fill="white"/>
</svg>
