<svg width="28" height="28" viewBox="0 0 28 28" fill="none" xmlns="http://www.w3.org/2000/svg">
<path d="M24.7975 16.67L24.735 16.0487L24.7162 16.05L24.695 16.0537L24.7975 16.67ZM24.7975 16.67L24.86 17.2925L24.8813 17.29L24.9013 17.2862L24.7975 16.67ZM19.7475 23.5225L20.1438 23.0387L20.1375 23.035L19.7475 23.5225ZM19.7475 23.5225L19.3512 24.0062L19.3575 24.0112L19.7475 23.5225ZM8.2525 23.5225L7.85625 23.04L7.8475 23.0475L7.8375 23.0562L8.2525 23.5225ZM8.2525 23.5225L8.64875 24.0075L8.65875 23.9987L8.6675 23.9912L8.2525 23.5225ZM3.20125 11.33V10.705H3.17125L3.14 10.7075L3.20125 11.33ZM3.20125 11.33V11.955H3.2325L3.26375 11.9512L3.20125 11.33ZM17.29 3.13872C17.2715 2.91206 17.2452 2.68609 17.2113 2.46122C17.1832 2.2621 17.1232 2.0688 17.0338 1.88872L15.9225 2.46247C15.935 2.48747 15.9563 2.53747 15.9775 2.66747C16.0012 2.80497 16.0187 2.98372 16.0475 3.26247L17.29 3.13872ZM17.535 4.64247C17.52 4.62372 17.475 4.54747 17.4263 4.27997C17.3678 3.90126 17.324 3.52061 17.2925 3.13872L16.0475 3.26247C16.0975 3.76372 16.1388 4.17872 16.1962 4.50122C16.2525 4.81622 16.34 5.13747 16.5413 5.40122L17.535 4.64247ZM18.115 4.88247C18.0057 4.89717 17.8945 4.88271 17.7927 4.84056C17.6908 4.79841 17.6019 4.73007 17.535 4.64247L16.54 5.39997C16.7407 5.6632 17.0076 5.8686 17.3134 5.99528C17.6193 6.12196 17.9532 6.16541 18.2812 6.12122L18.115 4.88247ZM19.35 3.99122C18.9438 4.32497 18.6663 4.55122 18.4475 4.70247C18.2237 4.85747 18.1375 4.87872 18.115 4.88247L18.2812 6.12122C18.6087 6.07747 18.8975 5.91247 19.1612 5.72872C19.43 5.54122 19.7512 5.27872 20.1425 4.95872L19.35 3.99122ZM20.415 3.28997C20.215 3.35372 20.0462 3.45497 19.8862 3.56872C19.7312 3.67872 19.555 3.82372 19.35 3.99122L20.1425 4.95872C20.3587 4.78122 20.4987 4.66747 20.6112 4.58747C20.6675 4.54298 20.7298 4.50678 20.7962 4.47997L20.415 3.28997ZM21.7312 3.35497C21.3148 3.17475 20.8472 3.15165 20.415 3.28997L20.7962 4.47997C20.94 4.43444 21.0954 4.44243 21.2338 4.50247L21.7312 3.35497ZM22.7212 4.15997C22.5337 3.97247 22.3725 3.80997 22.23 3.68497C22.0825 3.549 21.9141 3.43758 21.7312 3.35497L21.2338 4.50247C21.26 4.51372 21.3075 4.53997 21.4075 4.62747C21.5113 4.71747 21.6388 4.84497 21.8375 5.04372L22.7212 4.15997ZM23.8375 5.27622L22.7212 4.15997L21.8375 5.04372L22.9538 6.15997L23.8375 5.27622ZM24.6425 6.26622C24.5595 6.0833 24.4477 5.9149 24.3113 5.76747C24.1863 5.62497 24.0238 5.46372 23.8375 5.27622L22.9538 6.15997C23.1525 6.35872 23.2787 6.48622 23.3713 6.58997C23.4587 6.68997 23.4838 6.73747 23.495 6.76372L24.6425 6.26622ZM24.7075 7.58247C24.8458 7.15031 24.8227 6.68265 24.6425 6.26622L23.495 6.76372C23.5546 6.90222 23.5622 7.0576 23.5163 7.20122L24.7075 7.58247ZM24.0062 8.64747C24.1737 8.44247 24.3188 8.26622 24.4288 8.11122C24.5413 7.95122 24.6437 7.78247 24.7075 7.58247L23.5163 7.20122C23.4898 7.26764 23.4541 7.32993 23.41 7.38622C23.291 7.54614 23.1671 7.70246 23.0388 7.85497L24.0062 8.64747ZM23.115 9.88247C23.1187 9.85997 23.14 9.77372 23.295 9.54997C23.4463 9.33122 23.6725 9.05372 24.0062 8.64747L23.0388 7.85497C22.7188 8.24622 22.455 8.56747 22.2687 8.83622C22.085 9.09872 21.92 9.38872 21.8763 9.71622L23.115 9.88247ZM23.355 10.4625C23.2674 10.3955 23.1991 10.3066 23.1569 10.2048C23.1148 10.1029 23.1003 9.99172 23.115 9.88247L21.8763 9.71622C21.8323 10.0441 21.8759 10.3778 22.0025 10.6834C22.1292 10.989 22.3345 11.2556 22.5975 11.4562L23.355 10.4625ZM24.8587 10.7062C24.335 10.6537 23.98 10.6187 23.7175 10.5712C23.45 10.5225 23.3737 10.4775 23.355 10.4625L22.5975 11.4562C22.86 11.6562 23.1812 11.7437 23.4975 11.8012C23.8188 11.8587 24.2325 11.9012 24.735 11.9512L24.8587 10.7062ZM26.1087 10.9637C25.9287 10.8742 25.7354 10.8143 25.5363 10.7862C25.3487 10.755 25.1213 10.7325 24.8587 10.7062L24.7337 11.95C25.0138 11.9787 25.1925 11.9962 25.33 12.02C25.4006 12.0285 25.4696 12.047 25.535 12.075L26.1087 10.9637ZM26.9925 11.94C26.8256 11.5184 26.5117 11.1716 26.1087 10.9637L25.535 12.075C25.6694 12.1441 25.7742 12.2595 25.83 12.4L26.9925 11.94ZM27.1238 13.2087C27.1238 12.945 27.1238 12.7162 27.1112 12.5262C27.1033 12.3257 27.0632 12.1278 26.9925 11.94L25.83 12.4C25.84 12.4262 25.855 12.4787 25.8637 12.61C25.8731 12.8098 25.8764 13.0099 25.8738 13.21L27.1238 13.2087ZM27.1238 14.7887V13.2087H25.8738V14.7887H27.1238ZM26.9925 16.0562C27.07 15.8612 27.0988 15.6662 27.1112 15.47C27.1238 15.2812 27.1238 15.0525 27.1238 14.7887H25.8738C25.8738 15.0687 25.8737 15.2487 25.8637 15.3875C25.8625 15.4587 25.8512 15.5294 25.83 15.5975L26.9925 16.0562ZM26.1087 17.0337C26.5119 16.8255 26.8259 16.4782 26.9925 16.0562L25.83 15.5975C25.7742 15.7379 25.6694 15.8534 25.535 15.9225L26.1087 17.0337ZM24.8587 17.2912C25.1213 17.265 25.35 17.2412 25.5363 17.21C25.73 17.1787 25.9213 17.13 26.1075 17.035L25.535 15.9225C25.4696 15.9504 25.4006 15.9689 25.33 15.9775C25.1925 16.0012 25.0138 16.0187 24.735 16.0475L24.8587 17.2912ZM23.3563 17.535C23.375 17.52 23.4513 17.4737 23.7188 17.4262C23.9812 17.3787 24.3363 17.3425 24.8587 17.2912L24.735 16.0475C24.2337 16.0975 23.8188 16.1375 23.4963 16.1962C23.1812 16.2525 22.8612 16.34 22.5975 16.54L23.3563 17.535ZM23.115 18.115C23.1004 18.0056 23.1151 17.8943 23.1575 17.7925C23.1998 17.6906 23.2684 17.6017 23.3563 17.535L22.5975 16.54C22.3343 16.7407 22.1289 17.0076 22.0022 17.3134C21.8755 17.6192 21.8321 17.9531 21.8763 18.2812L23.115 18.115ZM24.0062 19.35C23.7586 19.0576 23.5214 18.7566 23.295 18.4475C23.14 18.225 23.1187 18.1375 23.115 18.115L21.8775 18.2825C21.9212 18.61 22.0863 18.8975 22.2687 19.1612C22.4562 19.4287 22.7188 19.7512 23.0388 20.1412L24.0062 19.35ZM24.7075 20.415C24.6436 20.2245 24.5495 20.0456 24.4288 19.885C24.2934 19.7024 24.1525 19.524 24.0062 19.35L23.0388 20.1412C23.2163 20.3587 23.33 20.4975 23.41 20.6112C23.4539 20.6671 23.4897 20.729 23.5163 20.795L24.7075 20.415ZM24.6425 21.7312C24.8227 21.3148 24.8458 20.8471 24.7075 20.415L23.5163 20.795C23.5625 20.939 23.5549 21.0949 23.495 21.2337L24.6425 21.7312ZM23.8388 22.72C24.025 22.5337 24.1863 22.3725 24.3113 22.23C24.4412 22.0812 24.5588 21.925 24.6425 21.7312L23.495 21.2337C23.4618 21.2969 23.4197 21.355 23.37 21.4062C23.2356 21.5537 23.0968 21.6971 22.9538 21.8362L23.8388 22.72ZM22.7212 23.8375L23.8388 22.72L22.9538 21.8362L21.8375 22.9537L22.7212 23.8375ZM21.7312 24.6412C21.9237 24.5575 22.0812 24.4412 22.23 24.3112C22.3725 24.1862 22.5337 24.0237 22.7212 23.8362L21.8375 22.9537C21.6388 23.1525 21.5113 23.2787 21.4075 23.37C21.3559 23.4197 21.2973 23.4618 21.2338 23.495L21.7312 24.6412ZM20.415 24.7075C20.8473 24.8454 21.315 24.8219 21.7312 24.6412L21.2338 23.495C21.0953 23.5546 20.9399 23.5621 20.7962 23.5162L20.415 24.7075ZM19.35 24.005C19.555 24.1725 19.7312 24.3175 19.8862 24.4275C20.0462 24.5412 20.215 24.6437 20.415 24.7075L20.7962 23.5162C20.7298 23.4898 20.6675 23.454 20.6112 23.41C20.4513 23.2905 20.295 23.1663 20.1425 23.0375L19.35 24.005ZM18.115 23.115C18.1375 23.1175 18.225 23.14 18.4475 23.295C18.6663 23.4462 18.9438 23.6725 19.35 24.005L20.1425 23.0375C19.7512 22.7187 19.43 22.455 19.1612 22.2675C18.8988 22.085 18.6087 21.92 18.2812 21.8762L18.115 23.115ZM17.535 23.355C17.6019 23.2674 17.6908 23.199 17.7927 23.1569C17.8945 23.1147 18.0057 23.1003 18.115 23.115L18.2812 21.8762C17.9535 21.8321 17.6199 21.8755 17.3143 22.0019C17.0087 22.1284 16.742 22.3334 16.5413 22.5962L17.535 23.355ZM17.2913 24.8587C17.3438 24.335 17.3787 23.98 17.4263 23.7175C17.475 23.45 17.52 23.3737 17.535 23.355L16.5413 22.5962C16.3413 22.8587 16.2537 23.1812 16.1962 23.4962C16.1388 23.8175 16.0963 24.2312 16.0463 24.7337L17.2913 24.8587ZM17.0338 26.1087C17.13 25.9212 17.1775 25.73 17.21 25.5362C17.2425 25.3487 17.265 25.1212 17.2913 24.8587L16.0463 24.7337C16.0289 24.9331 16.0068 25.132 15.9775 25.33C15.969 25.4006 15.9505 25.4696 15.9225 25.535L17.0338 26.1087ZM16.0575 26.9925C16.4791 26.8256 16.8259 26.5116 17.0338 26.1087L15.9225 25.535C15.8534 25.6694 15.7379 25.7742 15.5975 25.83L16.0575 26.9925ZM14.7887 27.1237C15.0525 27.1237 15.2812 27.1237 15.4713 27.1112C15.6663 27.0987 15.8625 27.07 16.0575 26.9925L15.5975 25.83C15.5295 25.8511 15.4587 25.8625 15.3875 25.8637C15.25 25.8737 15.0688 25.8737 14.7875 25.8737L14.7887 27.1237ZM13.2087 27.1237H14.7887L14.7875 25.8737H13.2087V27.1237ZM11.94 26.9925C12.1363 27.07 12.3312 27.0987 12.5275 27.1112C12.7162 27.1237 12.945 27.1237 13.2087 27.1237V25.8737C12.9287 25.8737 12.7487 25.8737 12.61 25.8637C12.5388 25.8625 12.468 25.8511 12.4 25.83L11.94 26.9925ZM10.9637 26.1087C11.1716 26.5116 11.5184 26.8256 11.94 26.9925L12.4 25.83C12.2596 25.7742 12.1441 25.6694 12.075 25.535L10.9637 26.1087ZM10.7062 24.8587C10.7312 25.1229 10.7579 25.3487 10.7863 25.5362C10.8187 25.73 10.8675 25.9212 10.9637 26.1087L12.075 25.535C12.047 25.4696 12.0285 25.4006 12.02 25.33C11.9907 25.1324 11.9674 24.934 11.95 24.735L10.7062 24.8587ZM10.4625 23.355C10.4775 23.3737 10.5225 23.45 10.5712 23.7175C10.6187 23.98 10.6537 24.3362 10.7062 24.8587L11.95 24.735C11.9 24.2337 11.8588 23.8187 11.8013 23.4962C11.745 23.1812 11.6575 22.86 11.4563 22.5962L10.4625 23.355ZM9.8825 23.115C9.99175 23.1003 10.103 23.1147 10.2048 23.1569C10.3067 23.199 10.3956 23.2674 10.4625 23.355L11.4563 22.5962C11.2556 22.3332 10.989 22.1292 10.6834 22.0025C10.3778 21.8758 10.0441 21.8323 9.71625 21.8762L9.8825 23.115ZM8.6475 24.0062C9.05375 23.6725 9.33125 23.4462 9.55 23.295C9.77375 23.14 9.86 23.1175 9.8825 23.115L9.71625 21.8762C9.38875 21.92 9.1 22.085 8.83625 22.2687C8.5675 22.455 8.24625 22.7187 7.855 23.0387L8.6475 24.0062ZM7.5825 24.7075C7.7825 24.6437 7.95125 24.5425 8.11125 24.4287C8.26625 24.3187 8.4425 24.1737 8.6475 24.0062L7.855 23.0387C7.70249 23.1671 7.54617 23.2909 7.38625 23.41C7.32996 23.454 7.26766 23.4898 7.20125 23.5162L7.5825 24.7075ZM6.26625 24.6437C6.68268 24.8239 7.15034 24.8458 7.5825 24.7075L7.20125 23.5162C7.05763 23.5621 6.90225 23.5546 6.76375 23.495L6.26625 24.6437ZM5.27625 23.8375C5.46375 24.025 5.625 24.1875 5.7675 24.3125C5.915 24.4412 6.07375 24.56 6.26625 24.6437L6.76375 23.495C6.70015 23.4618 6.64164 23.4197 6.59 23.37C6.44255 23.2355 6.29915 23.0967 6.16 22.9537L5.27625 23.8375ZM4.16 22.7212L5.27625 23.8375L6.16 22.9537L5.04375 21.8375L4.16 22.7212ZM3.355 21.7312C3.43875 21.9237 3.55625 22.0812 3.68625 22.23C3.81125 22.3725 3.97375 22.5337 4.16 22.7212L5.04375 21.8375C4.90032 21.6983 4.76109 21.5549 4.62625 21.4075C4.57649 21.3558 4.5344 21.2973 4.50125 21.2337L3.355 21.7312ZM3.29 20.415C3.15168 20.8471 3.17478 21.3148 3.355 21.7312L4.50125 21.2337C4.44121 21.0954 4.43447 20.94 4.48 20.7962L3.29 20.415ZM3.99125 19.35C3.82375 19.555 3.67875 19.7312 3.56875 19.8862C3.44816 20.0464 3.35404 20.2249 3.29 20.415L4.48 20.7962C4.50681 20.7297 4.54301 20.6674 4.5875 20.6112C4.6675 20.4987 4.78125 20.3587 4.95875 20.1425L3.99125 19.35ZM4.8825 18.115C4.87875 18.1375 4.8575 18.2237 4.7025 18.4475C4.55 18.6662 4.325 18.9437 3.99125 19.35L4.95875 20.1425C5.27875 19.7512 5.5425 19.43 5.72875 19.1612C5.9125 18.8987 6.0775 18.6087 6.12125 18.2812L4.8825 18.115ZM4.6425 17.535C4.7301 17.6019 4.79844 17.6908 4.84059 17.7927C4.88274 17.8945 4.8972 18.0057 4.8825 18.115L6.12125 18.2812C6.16521 17.9533 6.12164 17.6197 5.99497 17.3141C5.8683 17.0085 5.66303 16.7418 5.4 16.5412L4.6425 17.535ZM3.13875 17.2925C3.6625 17.3437 4.0175 17.3787 4.28 17.4262C4.5475 17.475 4.62375 17.52 4.6425 17.535L5.4 16.54C5.1375 16.34 4.81625 16.2525 4.5 16.1962C4.17875 16.1387 3.765 16.0962 3.2625 16.0462L3.13875 17.2925ZM1.88875 17.0337C2.07625 17.13 2.2675 17.1775 2.46125 17.21C2.64875 17.2425 2.875 17.2662 3.13875 17.2925L3.26375 16.0475C3.06434 16.0301 2.8655 16.0068 2.6675 15.9775C2.5969 15.9689 2.52788 15.9504 2.4625 15.9225L1.88875 17.0337ZM1.005 16.0562C1.17161 16.4782 1.4856 16.8255 1.88875 17.0337L2.4625 15.9225C2.32811 15.8534 2.22331 15.7379 2.1675 15.5975L1.005 16.0562ZM0.875 14.7912C0.875 15.055 0.875 15.2837 0.8875 15.4737C0.89559 15.6738 0.935681 15.8713 1.00625 16.0587L2.16875 15.6C2.14758 15.5319 2.13622 15.4612 2.135 15.39C2.12567 15.1901 2.12233 14.99 2.125 14.79L0.875 14.7912ZM0.875 13.2112V14.7912H2.125V13.2112H0.875ZM1.00625 11.9425C0.935419 12.1307 0.895324 12.329 0.8875 12.53C0.875 12.7187 0.875 12.9475 0.875 13.2112H2.125C2.125 12.9312 2.125 12.7512 2.135 12.6125C2.13622 12.5412 2.14758 12.4705 2.16875 12.4025L1.00625 11.9425ZM1.89 10.9662C1.48707 11.1741 1.17311 11.5209 1.00625 11.9425L2.16875 12.4025C2.22456 12.262 2.32936 12.1466 2.46375 12.0775L1.89 10.9662ZM3.14 10.7075C2.87583 10.7325 2.65 10.7604 2.4625 10.7887C2.26338 10.8168 2.07008 10.8767 1.89 10.9662L2.46375 12.0775C2.48875 12.065 2.53875 12.0437 2.66875 12.0225C2.80625 11.9987 2.985 11.9812 3.26375 11.9525L3.14 10.7075ZM4.64375 10.465C4.625 10.48 4.54875 10.525 4.28125 10.5737C4.01875 10.6212 3.66375 10.655 3.14 10.7075L3.26375 11.9525C3.765 11.9025 4.18125 11.8612 4.5025 11.8037C4.81875 11.7475 5.14 11.66 5.4025 11.4587L4.64375 10.465ZM4.88375 9.88497C4.89845 9.99422 4.88399 10.1054 4.84184 10.2073C4.79969 10.3091 4.73135 10.398 4.64375 10.465L5.4025 11.4587C5.6653 11.258 5.87033 10.9912 5.99678 10.6857C6.12323 10.3801 6.1666 10.0452 6.1225 9.71747L4.88375 9.88497ZM3.9925 8.64872C4.32625 9.05622 4.5525 9.33372 4.705 9.55247C4.86 9.77622 4.88 9.86247 4.88375 9.88497L6.1225 9.71747C6.07875 9.38997 5.91375 9.10247 5.73 8.83872C5.54375 8.56997 5.28 8.24872 4.96 7.85747L3.9925 8.64872ZM3.29125 7.58372C3.35375 7.78372 3.45625 7.95372 3.57 8.11372C3.68 8.26747 3.825 8.44497 3.9925 8.64872L4.96 7.85747C4.83159 7.70455 4.70778 7.54781 4.58875 7.38747C4.54436 7.33164 4.50816 7.26977 4.48125 7.20372L3.29125 7.58372ZM3.35625 6.26872C3.17634 6.68479 3.15325 7.15194 3.29125 7.58372L4.48125 7.20372C4.43572 7.05995 4.44371 6.90456 4.50375 6.76622L3.35625 6.26872ZM4.16125 5.27872C3.97375 5.46497 3.81125 5.62622 3.68625 5.76997C3.55027 5.91749 3.43886 6.08589 3.35625 6.26872L4.50375 6.76622C4.537 6.70307 4.57909 6.64373 4.62875 6.59247C4.76256 6.44443 4.90139 6.30102 5.045 6.16247L4.16125 5.27872ZM5.2775 4.16122L4.16125 5.27872L5.045 6.16247L6.16125 5.04497L5.2775 4.16122ZM6.2675 3.35747C6.08467 3.44008 5.91627 3.5515 5.76875 3.68747C5.62625 3.81247 5.46375 3.97372 5.2775 4.16122L6.16125 5.04497C6.36 4.84747 6.4875 4.71997 6.59125 4.62872C6.69125 4.54122 6.73875 4.51622 6.765 4.50372L6.2675 3.35747ZM7.58375 3.29122C7.15144 3.1533 6.68378 3.17684 6.2675 3.35747L6.765 4.50372C6.90334 4.44368 7.05873 4.43694 7.2025 4.48247L7.58375 3.29122ZM8.64875 3.99372C8.44375 3.82622 8.2675 3.68122 8.1125 3.57122C7.95237 3.45019 7.77385 3.35565 7.58375 3.29122L7.2025 4.48247C7.26891 4.50889 7.33121 4.54467 7.3875 4.58872C7.5 4.66997 7.64 4.78372 7.8575 4.96122L8.64875 3.99372ZM9.88375 4.88497C9.86125 4.88122 9.775 4.85997 9.55125 4.70497C9.24211 4.47819 8.94108 4.24179 8.64875 3.99372L7.8575 4.96122C8.2475 5.28122 8.57 5.54497 8.8375 5.73122C9.1 5.91372 9.39 6.07872 9.7175 6.12372L9.88375 4.88497ZM10.4637 4.64372C10.397 4.73155 10.3081 4.80013 10.2063 4.84251C10.1044 4.88488 9.99312 4.89953 9.88375 4.88497L9.7175 6.12372C10.0455 6.16805 10.3793 6.12354 10.6851 5.99708C10.991 5.87062 11.2579 5.66547 11.4587 5.40247L10.4637 4.64372ZM10.7075 3.14122C10.655 3.66372 10.62 4.01997 10.5725 4.28122C10.5238 4.54872 10.4787 4.62497 10.4637 4.64372L11.4587 5.40247C11.6587 5.13997 11.7462 4.81872 11.8025 4.50247C11.86 4.18122 11.9025 3.76747 11.9525 3.26497L10.7075 3.14122ZM10.965 1.89122C10.8687 2.07872 10.82 2.26997 10.7875 2.46372C10.7563 2.65122 10.7338 2.87747 10.7075 3.14122L11.9513 3.26622C11.9686 3.06681 11.992 2.86798 12.0212 2.66997C12.0298 2.59938 12.0483 2.53035 12.0763 2.46497L10.965 1.89122ZM11.9425 1.00747C11.5203 1.17439 11.1729 1.4876 10.965 1.89122L12.0763 2.46497C12.1454 2.33058 12.2608 2.22578 12.4012 2.16997L11.9425 1.00747ZM13.21 0.876221C12.9462 0.876221 12.7175 0.876221 12.5275 0.888721C12.3274 0.89681 12.1299 0.936902 11.9425 1.00747L12.4012 2.16997C12.4693 2.1488 12.54 2.13744 12.6112 2.13622C12.7487 2.12622 12.93 2.12622 13.2113 2.12622L13.21 0.876221ZM14.79 0.876221H13.21V2.12622H14.79V0.876221ZM16.0588 1.00747C15.8706 0.93664 15.6722 0.896544 15.4713 0.888721C15.2825 0.876221 15.0538 0.876221 14.79 0.876221V2.12622C15.07 2.12622 15.25 2.12622 15.3888 2.13622C15.46 2.13744 15.5307 2.1488 15.5988 2.16997L16.0588 1.00747ZM17.035 1.89122C16.8268 1.48807 16.4795 1.17408 16.0575 1.00747L15.5988 2.16997C15.7392 2.22578 15.8546 2.33058 15.9237 2.46497L17.035 1.89122ZM18.375 14C18.375 15.1603 17.9141 16.2731 17.0936 17.0936C16.2731 17.914 15.1603 18.375 14 18.375V19.625C15.4918 19.625 16.9226 19.0323 17.9775 17.9774C19.0324 16.9226 19.625 15.4918 19.625 14H18.375ZM14 9.62497C15.1603 9.62497 16.2731 10.0859 17.0936 10.9064C17.9141 11.7268 18.375 12.8396 18.375 14H19.625C19.625 12.5081 19.0324 11.0774 17.9775 10.0225C16.9226 8.9676 15.4918 8.37497 14 8.37497V9.62497ZM9.625 14C9.625 12.8396 10.0859 11.7268 10.9064 10.9064C11.7269 10.0859 12.8397 9.62497 14 9.62497V8.37497C12.5082 8.37497 11.0774 8.9676 10.0225 10.0225C8.96763 11.0774 8.375 12.5081 8.375 14H9.625ZM14 18.375C12.8397 18.375 11.7269 17.914 10.9064 17.0936C10.0859 16.2731 9.625 15.1603 9.625 14H8.375C8.375 15.4918 8.96763 16.9226 10.0225 17.9774C11.0774 19.0323 12.5082 19.625 14 19.625V18.375Z" fill="black"/>
</svg>
