<svg width="25" height="17" viewBox="0 0 25 17" fill="none" xmlns="http://www.w3.org/2000/svg">
<path d="M23.2214 8.89289C21.8077 6.69795 20.0359 5.0564 17.9061 3.96823C18.4734 4.93549 18.7571 5.98181 18.7571 7.10718C18.7571 8.82779 18.1456 10.2996 16.9225 11.5226C15.6995 12.7457 14.2277 13.3572 12.5071 13.3572C10.7865 13.3572 9.31465 12.7457 8.09162 11.5226C6.86859 10.2996 6.25708 8.82779 6.25708 7.10718C6.25708 5.98181 6.54075 4.93549 7.10808 3.96823C4.97825 5.0564 3.20648 6.69795 1.79279 8.89289C3.02977 10.7995 4.58065 12.3178 6.44542 13.4479C8.31019 14.5779 10.3307 15.1429 12.5071 15.1429C14.6834 15.1429 16.704 14.5779 18.5687 13.4479C20.4335 12.3178 21.9844 10.7995 23.2214 8.89289ZM13.1767 3.53575C13.1767 3.34974 13.1116 3.19163 12.9814 3.06142C12.8512 2.93121 12.6931 2.86611 12.5071 2.86611C11.3445 2.86611 10.347 3.28231 9.51461 4.11471C8.68221 4.94711 8.26601 5.9446 8.26601 7.10718C8.26601 7.29319 8.33111 7.4513 8.46132 7.58151C8.59153 7.71172 8.74964 7.77682 8.93565 7.77682C9.12166 7.77682 9.27977 7.71172 9.40998 7.58151C9.54019 7.4513 9.60529 7.29319 9.60529 7.10718C9.60529 6.30733 9.88896 5.62373 10.4563 5.0564C11.0236 4.48906 11.7072 4.20539 12.5071 4.20539C12.6931 4.20539 12.8512 4.14029 12.9814 4.01008C13.1116 3.87987 13.1767 3.72176 13.1767 3.53575ZM25.0071 8.89289C25.0071 9.20911 24.9141 9.52998 24.7281 9.8555C23.426 11.9946 21.6751 13.7083 19.4756 14.9964C17.276 16.2845 14.9531 16.9286 12.5071 16.9286C10.061 16.9286 7.7382 16.2822 5.53861 14.9894C3.33902 13.6966 1.58818 11.9853 0.286098 9.8555C0.100086 9.52998 0.00708008 9.20911 0.00708008 8.89289C0.00708008 8.57667 0.100086 8.2558 0.286098 7.93028C1.58818 5.80044 3.33902 4.08913 5.53861 2.79635C7.7382 1.50357 10.061 0.857178 12.5071 0.857178C14.9531 0.857178 17.276 1.50357 19.4756 2.79635C21.6751 4.08913 23.426 5.80044 24.7281 7.93028C24.9141 8.2558 25.0071 8.57667 25.0071 8.89289Z" fill="#848484"/>
</svg>
